<svg version="1.1"
    xmlns="http://www.w3.org/2000/svg"
    width="400" height="400">

    <rect width="100%" height="100%" fill="#EAEFF2" />
    <rect x="1" y="1" width="88" height="88" fill="#FFF3D9" stroke-width="2" stroke="#B8390E"/> 
    <rect x="104" y="1" width="88" height="88" fill="#FFF3D9" stroke-width="2" stroke="#B8390E"/> 
    <rect x="207" y="1" width="88" height="88" fill="#FFF3D9" stroke-width="2" stroke="#B8390E"/> 
    <rect x="310" y="1" width="88" height="88" fill="#FFF3D9" stroke-width="2" stroke="#B8390E"/> 
    <rect x="1" y="104" width="88" height="88" fill="#FFF3D9" stroke-width="2" stroke="#B8390E"/> 
    <rect x="104" y="104" width="88" height="88" fill="#FFF3D9" stroke-width="2" stroke="#B8390E"/> 
    <rect x="207" y="104" width="88" height="88" fill="#FFF3D9" stroke-width="2" stroke="#B8390E"/> 
    <rect x="310" y="104" width="88" height="88" fill="#FFF3D9" stroke-width="2" stroke="#B8390E"/> 
    <rect x="1" y="207" width="88" height="88" fill="#FFF3D9" stroke-width="2" stroke="#B8390E"/> 
    <rect x="104" y="207" width="88" height="88" fill="#FFF3D9" stroke-width="2" stroke="#B8390E"/> 
    <rect x="207" y="207" width="88" height="88" fill="#FFF3D9" stroke-width="2" stroke="#B8390E"/> 
    <rect x="310" y="207" width="88" height="88" fill="#FFF3D9" stroke-width="2" stroke="#B8390E"/> 
    <rect x="1" y="310" width="88" height="88" fill="#FFF3D9" stroke-width="2" stroke="#B8390E"/> 
    <rect x="104" y="310" width="88" height="88" fill="#FFF3D9" stroke-width="2" stroke="#B8390E"/> 
    <rect x="207" y="310" width="88" height="88" fill="#FFF3D9" stroke-width="2" stroke="#B8390E"/> 
    <rect x="310" y="310" width="88" height="88" fill="#FFF3D9" stroke-width="2" stroke="#B8390E"/> 

    <rect x="125" y="125" width="150" height="150" fill="#EAEFF2" /> 
    <rect x="151" y="151" width="48" height="48" fill="#B8390E" stroke-width="2" stroke="#FFF3D9"/> 
    <rect x="201" y="151" width="48" height="48" fill="#B8390E" stroke-width="2" stroke="#FFF3D9"/> 
    <rect x="151" y="201" width="48" height="48" fill="#B8390E" stroke-width="2" stroke="#FFF3D9"/> 
    <rect x="201" y="201" width="48" height="48" fill="#B8390E" stroke-width="2" stroke="#FFF3D9"/> 

</svg>