<svg version="1.1"
    xmlns="http://www.w3.org/2000/svg"
    width="340" height="340">

    <rect width="100%" height="100%" fill="#EAEFF2" />
    <rect x="1" y="1" width="26" height="62" fill="#FFF3D9" stroke-width="2" stroke="#B8390E"/> 
    <rect x="29" y="1" width="44" height="62" fill="#FFF3D9" stroke-width="2" stroke="#B8390E"/> 
    <rect x="75" y="1" width="7" height="61" fill="#FFF3D9" stroke-width="2" stroke="#B8390E"/> 
    <rect x="84" y="1" width="29" height="59" fill="#FFF3D9" stroke-width="2" stroke="#B8390E"/> 
    <rect x="115" y="1" width="26" height="57" fill="#FFF3D9" stroke-width="2" stroke="#B8390E"/> 
    <rect x="143" y="1" width="14" height="56" fill="#FFF3D9" stroke-width="2" stroke="#B8390E"/> 
    <rect x="159" y="1" width="6" height="54" fill="#FFF3D9" stroke-width="2" stroke="#B8390E"/> 
    <rect x="167" y="1" width="42" height="53" fill="#FFF3D9" stroke-width="2" stroke="#B8390E"/> 
    <rect x="211" y="1" width="49" height="53" fill="#FFF3D9" stroke-width="2" stroke="#B8390E"/> 
    <rect x="262" y="1" width="39" height="51" fill="#FFF3D9" stroke-width="2" stroke="#B8390E"/> 
    <rect x="303" y="1" width="17" height="51" fill="#FFF3D9" stroke-width="2" stroke="#B8390E"/> 
    <rect x="1" y="65" width="27" height="49" fill="#FFF3D9" stroke-width="2" stroke="#B8390E"/> 
    <rect x="30" y="65" width="30" height="49" fill="#FFF3D9" stroke-width="2" stroke="#B8390E"/> 
    <rect x="62" y="65" width="62" height="46" fill="#FFF3D9" stroke-width="2" stroke="#B8390E"/> 
    <rect x="126" y="65" width="34" height="45" fill="#FFF3D9" stroke-width="2" stroke="#B8390E"/> 
    <rect x="162" y="65" width="46" height="44" fill="#FFF3D9" stroke-width="2" stroke="#B8390E"/> 
    <rect x="210" y="65" width="18" height="38" fill="#FFF3D9" stroke-width="2" stroke="#B8390E"/> 
    <rect x="230" y="65" width="42" height="38" fill="#FFF3D9" stroke-width="2" stroke="#B8390E"/> 
    <rect x="274" y="65" width="37" height="37" fill="#FFF3D9" stroke-width="2" stroke="#B8390E"/> 
    <rect x="1" y="116" width="46" height="37" fill="#FFF3D9" stroke-width="2" stroke="#B8390E"/> 
    <rect x="49" y="116" width="30" height="35" fill="#FFF3D9" stroke-width="2" stroke="#B8390E"/> 
    <rect x="81" y="116" width="30" height="35" fill="#FFF3D9" stroke-width="2" stroke="#B8390E"/> 
    <rect x="113" y="116" width="62" height="33" fill="#FFF3D9" stroke-width="2" stroke="#B8390E"/> 
    <rect x="177" y="116" width="30" height="32" fill="#FFF3D9" stroke-width="2" stroke="#B8390E"/> 
    <rect x="209" y="116" width="29" height="32" fill="#FFF3D9" stroke-width="2" stroke="#B8390E"/> 
    <rect x="240" y="116" width="44" height="32" fill="#FFF3D9" stroke-width="2" stroke="#B8390E"/> 
    <rect x="286" y="116" width="22" height="28" fill="#FFF3D9" stroke-width="2" stroke="#B8390E"/> 
    <rect x="1" y="155" width="59" height="28" fill="#FFF3D9" stroke-width="2" stroke="#B8390E"/> 
    <rect x="62" y="155" width="14" height="26" fill="#FFF3D9" stroke-width="2" stroke="#B8390E"/> 
    <rect x="78" y="155" width="42" height="24" fill="#FFF3D9" stroke-width="2" stroke="#B8390E"/> 
    <rect x="122" y="155" width="37" height="21" fill="#FFF3D9" stroke-width="2" stroke="#B8390E"/> 
    <rect x="161" y="155" width="61" height="18" fill="#FFF3D9" stroke-width="2" stroke="#B8390E"/> 
    <rect x="224" y="155" width="33" height="18" fill="#FFF3D9" stroke-width="2" stroke="#B8390E"/> 
    <rect x="259" y="155" width="51" height="18" fill="#FFF3D9" stroke-width="2" stroke="#B8390E"/> 
    <rect x="1" y="185" width="42" height="16" fill="#FFF3D9" stroke-width="2" stroke="#B8390E"/> 
    <rect x="45" y="185" width="6" height="15" fill="#FFF3D9" stroke-width="2" stroke="#B8390E"/> 
    <rect x="53" y="185" width="23" height="14" fill="#FFF3D9" stroke-width="2" stroke="#B8390E"/> 
    <rect x="78" y="185" width="26" height="14" fill="#FFF3D9" stroke-width="2" stroke="#B8390E"/> 
    <rect x="106" y="185" width="54" height="13" fill="#FFF3D9" stroke-width="2" stroke="#B8390E"/> 
    <rect x="162" y="185" width="46" height="13" fill="#FFF3D9" stroke-width="2" stroke="#B8390E"/> 
    <rect x="210" y="185" width="47" height="12" fill="#FFF3D9" stroke-width="2" stroke="#B8390E"/> 
    <rect x="259" y="185" width="20" height="10" fill="#FFF3D9" stroke-width="2" stroke="#B8390E"/> 
    <rect x="281" y="185" width="21" height="9" fill="#FFF3D9" stroke-width="2" stroke="#B8390E"/> 
    <rect x="304" y="185" width="32" height="8" fill="#FFF3D9" stroke-width="2" stroke="#B8390E"/> 
    <rect x="1" y="203" width="16" height="8" fill="#FFF3D9" stroke-width="2" stroke="#B8390E"/> 
    <rect x="19" y="203" width="53" height="7" fill="#FFF3D9" stroke-width="2" stroke="#B8390E"/> 
    <rect x="74" y="203" width="24" height="7" fill="#FFF3D9" stroke-width="2" stroke="#B8390E"/> 
    <rect x="100" y="203" width="55" height="7" fill="#FFF3D9" stroke-width="2" stroke="#B8390E"/> 
    <rect x="157" y="203" width="23" height="6" fill="#FFF3D9" stroke-width="2" stroke="#B8390E"/> 
    <rect x="182" y="203" width="59" height="6" fill="#FFF3D9" stroke-width="2" stroke="#B8390E"/> 

</svg>