<svg version="1.1"
    xmlns="http://www.w3.org/2000/svg"
    width="351" height="351">

    <rect width="100%" height="100%" fill="#EAEFF2" />
    <rect x="1" y="1" width="56" height="62" fill="#FFF3D9" stroke-width="2" stroke="#B8390E"/> 
    <rect x="65" y="1" width="17" height="62" fill="#FFF3D9" stroke-width="2" stroke="#B8390E"/> 
    <rect x="89" y="1" width="23" height="60" fill="#FFF3D9" stroke-width="2" stroke="#B8390E"/> 
    <rect x="121" y="1" width="40" height="60" fill="#FFF3D9" stroke-width="2" stroke="#B8390E"/> 
    <rect x="169" y="1" width="11" height="59" fill="#FFF3D9" stroke-width="2" stroke="#B8390E"/> 
    <rect x="185" y="1" width="20" height="59" fill="#FFF3D9" stroke-width="2" stroke="#B8390E"/> 
    <rect x="209" y="1" width="18" height="59" fill="#FFF3D9" stroke-width="2" stroke="#B8390E"/> 
    <rect x="233" y="1" width="52" height="58" fill="#FFF3D9" stroke-width="2" stroke="#B8390E"/> 
    <rect x="289" y="1" width="10" height="56" fill="#FFF3D9" stroke-width="2" stroke="#B8390E"/> 
    <rect x="1" y="65" width="62" height="51" fill="#FFF3D9" stroke-width="2" stroke="#B8390E"/> 
    <rect x="305" y="1" width="12" height="51" fill="#FFF3D9" stroke-width="2" stroke="#B8390E"/> 
    <rect x="65" y="65" width="62" height="47" fill="#FFF3D9" stroke-width="2" stroke="#B8390E"/> 
    <rect x="129" y="65" width="52" height="47" fill="#FFF3D9" stroke-width="2" stroke="#B8390E"/> 
    <rect x="321" y="1" width="17" height="46" fill="#FFF3D9" stroke-width="2" stroke="#B8390E"/> 
    <rect x="185" y="65" width="19" height="45" fill="#FFF3D9" stroke-width="2" stroke="#B8390E"/> 
    <rect x="209" y="65" width="57" height="43" fill="#FFF3D9" stroke-width="2" stroke="#B8390E"/> 
    <rect x="273" y="65" width="18" height="41" fill="#FFF3D9" stroke-width="2" stroke="#B8390E"/> 
    <rect x="297" y="65" width="44" height="38" fill="#FFF3D9" stroke-width="2" stroke="#B8390E"/> 
    <rect x="1" y="121" width="50" height="38" fill="#FFF3D9" stroke-width="2" stroke="#B8390E"/> 
    <rect x="57" y="121" width="59" height="36" fill="#FFF3D9" stroke-width="2" stroke="#B8390E"/> 
    <rect x="121" y="121" width="9" height="36" fill="#FFF3D9" stroke-width="2" stroke="#B8390E"/> 
    <rect x="137" y="121" width="39" height="36" fill="#FFF3D9" stroke-width="2" stroke="#B8390E"/> 
    <rect x="185" y="121" width="9" height="35" fill="#FFF3D9" stroke-width="2" stroke="#B8390E"/> 
    <rect x="201" y="121" width="30" height="34" fill="#FFF3D9" stroke-width="2" stroke="#B8390E"/> 
    <rect x="241" y="121" width="40" height="34" fill="#FFF3D9" stroke-width="2" stroke="#B8390E"/> 
    <rect x="289" y="121" width="47" height="34" fill="#FFF3D9" stroke-width="2" stroke="#B8390E"/> 
    <rect x="1" y="161" width="42" height="33" fill="#FFF3D9" stroke-width="2" stroke="#B8390E"/> 
    <rect x="49" y="161" width="18" height="30" fill="#FFF3D9" stroke-width="2" stroke="#B8390E"/> 
    <rect x="73" y="161" width="26" height="28" fill="#FFF3D9" stroke-width="2" stroke="#B8390E"/> 
    <rect x="105" y="161" width="41" height="28" fill="#FFF3D9" stroke-width="2" stroke="#B8390E"/> 
    <rect x="153" y="161" width="11" height="26" fill="#FFF3D9" stroke-width="2" stroke="#B8390E"/> 
    <rect x="169" y="161" width="53" height="26" fill="#FFF3D9" stroke-width="2" stroke="#B8390E"/> 
    <rect x="225" y="161" width="33" height="26" fill="#FFF3D9" stroke-width="2" stroke="#B8390E"/> 
    <rect x="265" y="161" width="16" height="26" fill="#FFF3D9" stroke-width="2" stroke="#B8390E"/> 
    <rect x="289" y="161" width="20" height="25" fill="#FFF3D9" stroke-width="2" stroke="#B8390E"/> 
    <rect x="313" y="161" width="6" height="23" fill="#FFF3D9" stroke-width="2" stroke="#B8390E"/> 
    <rect x="1" y="201" width="60" height="23" fill="#FFF3D9" stroke-width="2" stroke="#B8390E"/> 
    <rect x="329" y="161" width="18" height="23" fill="#FFF3D9" stroke-width="2" stroke="#B8390E"/> 
    <rect x="65" y="201" width="33" height="22" fill="#FFF3D9" stroke-width="2" stroke="#B8390E"/> 
    <rect x="105" y="201" width="11" height="20" fill="#FFF3D9" stroke-width="2" stroke="#B8390E"/> 
    <rect x="121" y="201" width="26" height="19" fill="#FFF3D9" stroke-width="2" stroke="#B8390E"/> 
    <rect x="153" y="201" width="11" height="18" fill="#FFF3D9" stroke-width="2" stroke="#B8390E"/> 
    <rect x="169" y="201" width="37" height="18" fill="#FFF3D9" stroke-width="2" stroke="#B8390E"/> 
    <rect x="209" y="201" width="7" height="18" fill="#FFF3D9" stroke-width="2" stroke="#B8390E"/> 
    <rect x="225" y="201" width="42" height="16" fill="#FFF3D9" stroke-width="2" stroke="#B8390E"/> 
    <rect x="273" y="201" width="36" height="15" fill="#FFF3D9" stroke-width="2" stroke="#B8390E"/> 
    <rect x="1" y="233" width="46" height="13" fill="#FFF3D9" stroke-width="2" stroke="#B8390E"/> 
    <rect x="57" y="233" width="58" height="7" fill="#FFF3D9" stroke-width="2" stroke="#B8390E"/> 
    <rect x="121" y="233" width="39" height="7" fill="#FFF3D9" stroke-width="2" stroke="#B8390E"/> 
    <rect x="169" y="233" width="37" height="6" fill="#FFF3D9" stroke-width="2" stroke="#B8390E"/> 

</svg>