<svg version="1.1"
    xmlns="http://www.w3.org/2000/svg"
    width="340" height="340">

    <rect width="100%" height="100%" fill="#EAEFF2" />
    <rect x="1" y="1" width="26" height="62" fill="#FFF3D9" stroke-width="2" stroke="#B8390E"/> 
    <rect x="33" y="1" width="44" height="62" fill="#FFF3D9" stroke-width="2" stroke="#B8390E"/> 
    <rect x="81" y="1" width="7" height="61" fill="#FFF3D9" stroke-width="2" stroke="#B8390E"/> 
    <rect x="97" y="1" width="29" height="59" fill="#FFF3D9" stroke-width="2" stroke="#B8390E"/> 
    <rect x="129" y="1" width="26" height="57" fill="#FFF3D9" stroke-width="2" stroke="#B8390E"/> 
    <rect x="161" y="1" width="14" height="56" fill="#FFF3D9" stroke-width="2" stroke="#B8390E"/> 
    <rect x="193" y="1" width="6" height="54" fill="#FFF3D9" stroke-width="2" stroke="#B8390E"/> 
    <rect x="209" y="1" width="42" height="53" fill="#FFF3D9" stroke-width="2" stroke="#B8390E"/> 
    <rect x="257" y="1" width="49" height="53" fill="#FFF3D9" stroke-width="2" stroke="#B8390E"/> 
    <rect x="1" y="65" width="39" height="51" fill="#FFF3D9" stroke-width="2" stroke="#B8390E"/> 
    <rect x="321" y="1" width="17" height="51" fill="#FFF3D9" stroke-width="2" stroke="#B8390E"/> 
    <rect x="49" y="65" width="27" height="49" fill="#FFF3D9" stroke-width="2" stroke="#B8390E"/> 
    <rect x="81" y="65" width="30" height="49" fill="#FFF3D9" stroke-width="2" stroke="#B8390E"/> 
    <rect x="129" y="65" width="62" height="46" fill="#FFF3D9" stroke-width="2" stroke="#B8390E"/> 
    <rect x="193" y="65" width="34" height="45" fill="#FFF3D9" stroke-width="2" stroke="#B8390E"/> 
    <rect x="241" y="65" width="46" height="44" fill="#FFF3D9" stroke-width="2" stroke="#B8390E"/> 
    <rect x="305" y="65" width="18" height="38" fill="#FFF3D9" stroke-width="2" stroke="#B8390E"/> 
    <rect x="1" y="129" width="42" height="38" fill="#FFF3D9" stroke-width="2" stroke="#B8390E"/> 
    <rect x="49" y="129" width="37" height="37" fill="#FFF3D9" stroke-width="2" stroke="#B8390E"/> 
    <rect x="97" y="129" width="46" height="37" fill="#FFF3D9" stroke-width="2" stroke="#B8390E"/> 
    <rect x="161" y="129" width="30" height="35" fill="#FFF3D9" stroke-width="2" stroke="#B8390E"/> 
    <rect x="209" y="129" width="30" height="35" fill="#FFF3D9" stroke-width="2" stroke="#B8390E"/> 
    <rect x="257" y="129" width="62" height="33" fill="#FFF3D9" stroke-width="2" stroke="#B8390E"/> 
    <rect x="1" y="177" width="30" height="32" fill="#FFF3D9" stroke-width="2" stroke="#B8390E"/> 
    <rect x="49" y="177" width="29" height="32" fill="#FFF3D9" stroke-width="2" stroke="#B8390E"/> 
    <rect x="81" y="177" width="44" height="32" fill="#FFF3D9" stroke-width="2" stroke="#B8390E"/> 
    <rect x="129" y="177" width="22" height="28" fill="#FFF3D9" stroke-width="2" stroke="#B8390E"/> 
    <rect x="161" y="177" width="59" height="28" fill="#FFF3D9" stroke-width="2" stroke="#B8390E"/> 
    <rect x="321" y="129" width="14" height="26" fill="#FFF3D9" stroke-width="2" stroke="#B8390E"/> 
    <rect x="225" y="177" width="42" height="24" fill="#FFF3D9" stroke-width="2" stroke="#B8390E"/> 
    <rect x="273" y="177" width="37" height="21" fill="#FFF3D9" stroke-width="2" stroke="#B8390E"/> 
    <rect x="1" y="225" width="61" height="18" fill="#FFF3D9" stroke-width="2" stroke="#B8390E"/> 
    <rect x="65" y="225" width="33" height="18" fill="#FFF3D9" stroke-width="2" stroke="#B8390E"/> 
    <rect x="113" y="225" width="51" height="18" fill="#FFF3D9" stroke-width="2" stroke="#B8390E"/> 
    <rect x="177" y="225" width="42" height="16" fill="#FFF3D9" stroke-width="2" stroke="#B8390E"/> 
    <rect x="321" y="177" width="6" height="15" fill="#FFF3D9" stroke-width="2" stroke="#B8390E"/> 
    <rect x="225" y="225" width="23" height="14" fill="#FFF3D9" stroke-width="2" stroke="#B8390E"/> 
    <rect x="257" y="225" width="26" height="14" fill="#FFF3D9" stroke-width="2" stroke="#B8390E"/> 
    <rect x="1" y="257" width="54" height="13" fill="#FFF3D9" stroke-width="2" stroke="#B8390E"/> 
    <rect x="289" y="225" width="46" height="13" fill="#FFF3D9" stroke-width="2" stroke="#B8390E"/> 
    <rect x="65" y="257" width="47" height="12" fill="#FFF3D9" stroke-width="2" stroke="#B8390E"/> 
    <rect x="129" y="257" width="20" height="10" fill="#FFF3D9" stroke-width="2" stroke="#B8390E"/> 
    <rect x="161" y="257" width="21" height="9" fill="#FFF3D9" stroke-width="2" stroke="#B8390E"/> 
    <rect x="193" y="257" width="32" height="8" fill="#FFF3D9" stroke-width="2" stroke="#B8390E"/> 
    <rect x="241" y="257" width="16" height="8" fill="#FFF3D9" stroke-width="2" stroke="#B8390E"/> 
    <rect x="273" y="257" width="53" height="7" fill="#FFF3D9" stroke-width="2" stroke="#B8390E"/> 
    <rect x="1" y="273" width="24" height="7" fill="#FFF3D9" stroke-width="2" stroke="#B8390E"/> 
    <rect x="33" y="273" width="55" height="7" fill="#FFF3D9" stroke-width="2" stroke="#B8390E"/> 
    <rect x="97" y="273" width="23" height="6" fill="#FFF3D9" stroke-width="2" stroke="#B8390E"/> 
    <rect x="129" y="273" width="59" height="6" fill="#FFF3D9" stroke-width="2" stroke="#B8390E"/> 

</svg>